<svg id="visual" viewBox="0 0 900 675" width="900" height="675" xmlns="http://www.w3.org/2000/svg" xmlns:xlink="http://www.w3.org/1999/xlink" version="1.1"><rect x="0" y="0" width="900" height="675" fill="#000000"></rect><path d="M438 675L349 675L349 608L414 608L414 540L471 540L471 472L376 472L376 405L350 405L350 338L451 338L451 270L499 270L499 203L432 203L432 135L334 135L334 67L403 67L403 0L900 0L900 67L900 67L900 135L900 135L900 203L900 203L900 270L900 270L900 338L900 338L900 405L900 405L900 472L900 472L900 540L900 540L900 608L900 608L900 675L900 675Z" fill="#ffd800"></path><path d="M493 675L652 675L652 608L539 608L539 540L579 540L579 472L513 472L513 405L529 405L529 338L540 338L540 270L524 270L524 203L544 203L544 135L507 135L507 67L597 67L597 0L900 0L900 67L900 67L900 135L900 135L900 203L900 203L900 270L900 270L900 338L900 338L900 405L900 405L900 472L900 472L900 540L900 540L900 608L900 608L900 675L900 675Z" fill="#cab403"></path><path d="M699 675L698 675L698 608L761 608L761 540L751 540L751 472L777 472L777 405L649 405L649 338L719 338L719 270L693 270L693 203L702 203L702 135L652 135L652 67L749 67L749 0L900 0L900 67L900 67L900 135L900 135L900 203L900 203L900 270L900 270L900 338L900 338L900 405L900 405L900 472L900 472L900 540L900 540L900 608L900 608L900 675L900 675Z" fill="#9a9106"></path></svg>