<svg id="visual" viewBox="0 0 900 675" width="900" height="675" xmlns="http://www.w3.org/2000/svg" xmlns:xlink="http://www.w3.org/1999/xlink" version="1.1"><rect x="0" y="0" width="900" height="675" fill="#140021"></rect><path d="M443 675L527 675L527 608L414 608L414 540L540 540L540 472L510 472L510 405L484 405L484 338L533 338L533 270L438 270L438 203L394 203L394 135L515 135L515 67L446 67L446 0L900 0L900 67L900 67L900 135L900 135L900 203L900 203L900 270L900 270L900 338L900 338L900 405L900 405L900 472L900 472L900 540L900 540L900 608L900 608L900 675L900 675Z" fill="#9900ff"></path><path d="M524 675L562 675L562 608L573 608L573 540L549 540L549 472L615 472L615 405L537 405L537 338L587 338L587 270L627 270L627 203L539 203L539 135L622 135L622 67L572 67L572 0L900 0L900 67L900 67L900 135L900 135L900 203L900 203L900 270L900 270L900 338L900 338L900 405L900 405L900 472L900 472L900 540L900 540L900 608L900 608L900 675L900 675Z" fill="#8200d9"></path><path d="M651 675L635 675L635 608L728 608L728 540L683 540L683 472L708 472L708 405L690 405L690 338L670 338L670 270L660 270L660 203L684 203L684 135L729 135L729 67L642 67L642 0L900 0L900 67L900 67L900 135L900 135L900 203L900 203L900 270L900 270L900 338L900 338L900 405L900 405L900 472L900 472L900 540L900 540L900 608L900 608L900 675L900 675Z" fill="#6c00b4"></path><path d="M754 675L763 675L763 608L787 608L787 540L823 540L823 472L776 472L776 405L759 405L759 338L779 338L779 270L762 270L762 203L825 203L825 135L737 135L737 67L776 67L776 0L900 0L900 67L900 67L900 135L900 135L900 203L900 203L900 270L900 270L900 338L900 338L900 405L900 405L900 472L900 472L900 540L900 540L900 608L900 608L900 675L900 675Z" fill="#560090"></path></svg>