<svg id="visual" viewBox="0 0 900 600" width="900" height="600" xmlns="http://www.w3.org/2000/svg" xmlns:xlink="http://www.w3.org/1999/xlink" version="1.1"><rect x="0" y="0" width="900" height="600" fill="#140021"></rect><path d="M480 600L579 600L579 557L478 557L478 514L459 514L459 471L534 471L534 429L539 429L539 386L477 386L477 343L498 343L498 300L556 300L556 257L491 257L491 214L558 214L558 171L570 171L570 129L518 129L518 86L491 86L491 43L464 43L464 0L900 0L900 43L900 43L900 86L900 86L900 129L900 129L900 171L900 171L900 214L900 214L900 257L900 257L900 300L900 300L900 343L900 343L900 386L900 386L900 429L900 429L900 471L900 471L900 514L900 514L900 557L900 557L900 600L900 600Z" fill="#9900ff"></path><path d="M685 600L616 600L616 557L648 557L648 514L597 514L597 471L684 471L684 429L636 429L636 386L655 386L655 343L681 343L681 300L591 300L591 257L602 257L602 214L624 214L624 171L640 171L640 129L684 129L684 86L675 86L675 43L692 43L692 0L900 0L900 43L900 43L900 86L900 86L900 129L900 129L900 171L900 171L900 214L900 214L900 257L900 257L900 300L900 300L900 343L900 343L900 386L900 386L900 429L900 429L900 471L900 471L900 514L900 514L900 557L900 557L900 600L900 600Z" fill="#7700c6"></path><path d="M747 600L745 600L745 557L766 557L766 514L732 514L732 471L804 471L804 429L716 429L716 386L757 386L757 343L787 343L787 300L795 300L795 257L765 257L765 214L727 214L727 171L801 171L801 129L812 129L812 86L753 86L753 43L810 43L810 0L900 0L900 43L900 43L900 86L900 86L900 129L900 129L900 171L900 171L900 214L900 214L900 257L900 257L900 300L900 300L900 343L900 343L900 386L900 386L900 429L900 429L900 471L900 471L900 514L900 514L900 557L900 557L900 600L900 600Z" fill="#560090"></path></svg>